<svg width="116" height="29" viewBox="0 0 116 29" fill="none" xmlns="http://www.w3.org/2000/svg">
    <path d="M37.9121 24.5829V9.97193H40.086L40.293 11.1513H40.3966C41.0177 10.3435 42.0732 9.76489 43.5428 9.76489C46.2324 9.76489 48.386 11.9591 48.386 15.207C48.386 18.4549 46.2343 20.6492 43.5428 20.6492C42.0935 20.6492 41.0805 20.0484 40.5426 19.3663H40.4391V24.581H37.914L37.9121 24.5829ZM45.859 15.2089C45.859 13.3049 44.6371 12.1052 43.1472 12.1052C41.6573 12.1052 40.4354 13.3049 40.4354 15.2089C40.4354 17.1129 41.6573 18.3126 43.1472 18.3126C44.6371 18.3126 45.859 17.1129 45.859 15.2089Z" fill="white"/>
    <path d="M49.667 15.2089C49.667 12.0423 51.9426 9.76672 54.9853 9.76672C58.028 9.76672 60.3036 12.0423 60.3036 15.2089C60.3036 18.3754 58.028 20.651 54.9853 20.651C51.9426 20.651 49.667 18.3532 49.667 15.2089ZM57.7581 15.2089C57.7581 13.3455 56.5159 12.1051 54.9853 12.1051C53.4547 12.1051 52.1921 13.3474 52.1921 15.2089C52.1921 17.0703 53.4547 18.2922 54.9853 18.2922C56.5159 18.2922 57.7581 17.0722 57.7581 15.2089Z" fill="white"/>
    <path d="M62.1338 20.444V5.95874H64.6589V20.4458H62.1338V20.444Z" fill="white"/>
    <path d="M74.0329 9.97192H76.7225L72.1695 22.6992C71.7148 23.9618 71.0937 24.5829 69.4577 24.5829H67.0158V22.2444H69.0861C69.4596 22.2444 69.6647 22.0577 69.7904 21.7472L70.0381 21.0651L65.7754 9.97192H68.465L71.1769 17.2367H71.5909L74.0329 9.97192Z" fill="white"/>
    <path d="M77.2051 20.9616H79.7709C79.8744 21.6437 80.5565 22.5753 82.1721 22.5753C83.6824 22.5753 84.6769 21.6233 84.6769 20.1741V18.7045H84.5734C84.0151 19.3053 82.98 19.8432 81.6545 19.8432C78.9649 19.8432 76.8945 17.7728 76.8945 14.7929C76.8945 11.8131 78.9649 9.76489 81.6545 9.76489C83.041 9.76489 84.0558 10.3232 84.6973 11.1106H84.8008L85.0078 9.97193H87.202V20.1741C87.202 22.9469 85.3387 24.7899 82.1721 24.7899C78.634 24.7899 77.2679 22.4718 77.2051 20.9616ZM84.6769 14.7948C84.6769 13.1607 83.5179 12.022 82.0483 12.022C80.5787 12.022 79.44 13.1607 79.44 14.7948C79.44 16.4289 80.599 17.588 82.0483 17.588C83.4976 17.588 84.6769 16.4493 84.6769 14.7948Z" fill="white"/>
    <path d="M88.9561 15.2089C88.9561 12.0423 91.2316 9.76672 94.2743 9.76672C97.317 9.76672 99.5926 12.0423 99.5926 15.2089C99.5926 18.3754 97.317 20.651 94.2743 20.651C91.2316 20.651 88.9561 18.3532 88.9561 15.2089ZM97.0472 15.2089C97.0472 13.3455 95.8049 12.1051 94.2743 12.1051C92.7437 12.1051 91.4812 13.3474 91.4812 15.2089C91.4812 17.0703 92.7437 18.2922 94.2743 18.2922C95.8049 18.2922 97.0472 17.0722 97.0472 15.2089Z" fill="white"/>
    <path d="M101.35 20.444V9.97193H103.523L103.73 10.9646H103.833C104.247 10.4895 105.282 9.76489 106.854 9.76489C109.255 9.76489 110.993 11.5025 110.993 14.1515V20.4421H108.467V14.4824C108.467 13.1366 107.515 12.1643 106.212 12.1643C104.909 12.1643 103.874 13.1792 103.874 14.4824V20.4421H101.349L101.35 20.444Z" fill="white"/>
    <path d="M23.2158 19.2221L29.4232 15.6378C29.7522 15.4474 29.9556 15.0943 29.9556 14.7154V7.5467C29.9556 7.16775 29.7522 6.81468 29.4232 6.62427L23.2158 3.03994C22.8867 2.84953 22.4782 2.85138 22.151 3.03994L15.9436 6.62427C15.6145 6.81468 15.4112 7.16775 15.4112 7.5467V20.3572L11.0578 22.8693L6.70451 20.3572V15.3309L11.0578 12.8188L13.9286 14.4769V11.1052L11.5902 9.75387C11.4294 9.66144 11.2445 9.61153 11.0578 9.61153C10.8711 9.61153 10.6863 9.66144 10.5255 9.75387L4.31803 13.3382C3.98899 13.5286 3.78564 13.8817 3.78564 14.2606V21.4293C3.78564 21.8083 3.98899 22.1613 4.31803 22.3517L10.5255 25.9361C10.8545 26.1246 11.2612 26.1246 11.5902 25.9361L17.7977 22.3517C18.1267 22.1613 18.33 21.8083 18.33 21.4293V8.61701L18.4077 8.57265L22.6815 6.10483L27.0349 8.61701V13.6432L22.6815 16.1554L19.8144 14.5009V17.8727L22.1491 19.2203C22.4782 19.4088 22.8867 19.4088 23.2139 19.2203L23.2158 19.2221Z" fill="url(#paint0_linear_412_851)"/>
    <defs>
        <linearGradient id="paint0_linear_412_851" x1="3.70061" y1="22.1318" x2="28.8317" y2="7.54485" gradientUnits="userSpaceOnUse">
            <stop stop-color="#A726C1"/>
            <stop offset="0.88" stop-color="#803BDF"/>
            <stop offset="1" stop-color="#7B3FE4"/>
        </linearGradient>
    </defs>
</svg>