<svg width="456" height="96" viewBox="0 0 456 96" fill="none" xmlns="http://www.w3.org/2000/svg">
<g clip-path="url(#clip0_1_15)">
<path d="M78.6087 0H17.5229C7.88164 0 0.0658264 7.81581 0.0658264 17.4571V78.5429C0.0658264 88.1842 7.88164 96 17.5229 96H78.6087C88.25 96 96.0658 88.1842 96.0658 78.5429V17.4571C96.0658 7.81581 88.25 0 78.6087 0Z" fill="#2678FD"/>
<path fill-rule="evenodd" clip-rule="evenodd" d="M39.8948 46.1121L48.0658 34.5921L34.4004 15.3197L15.3856 42.1353V80.6802L31.7237 57.6362L39.8948 46.1121Z" fill="white"/>
<path fill-rule="evenodd" clip-rule="evenodd" d="M48.0658 34.5921L64.4039 57.6362L80.7461 80.6802V42.1353L61.7312 15.3197L48.0658 34.5921Z" fill="white"/>
<path fill-rule="evenodd" clip-rule="evenodd" d="M80.7461 80.6804L48.0658 57.3828L15.3856 80.6804H80.7461Z" fill="white"/>
</g>
<path d="M141.066 79.7961V14.803H150.863L173.36 60.837L195.857 14.803H205.654V79.7961H195.452V38.1377L175.491 79.7961H171.161L151.268 38.1377V79.7961H141.066Z" fill="#2678FD"/>
<path d="M240.406 81.1461C235.468 81.1461 231.135 80.0794 227.408 77.946C223.723 75.8568 220.697 72.7763 218.674 69.0541C216.525 65.0321 215.445 60.5258 215.536 55.9666C215.536 50.6424 216.559 46.0156 218.607 42.0861C220.527 38.293 223.486 35.1235 227.138 32.9468C230.973 30.7292 235.342 29.6049 239.77 29.6961C244.825 29.6961 249.122 30.8771 252.661 33.2393C256.255 35.6795 259.006 39.1727 260.535 43.2391C262.248 47.5397 262.895 52.6015 262.475 58.4244H251.688V54.4762C251.658 49.1782 250.721 45.3125 248.876 42.8791C247.031 40.4457 244.142 39.2272 240.209 39.2234C235.755 39.2234 232.444 40.5995 230.277 43.3516C228.11 46.1037 227.026 50.1269 227.026 55.4211C227.026 60.3591 228.11 64.1817 230.277 66.8888C232.444 69.5959 235.608 70.9495 239.77 70.9495C242.201 71.0142 244.602 70.3966 246.699 69.1666C248.682 67.9323 250.249 66.1319 251.199 63.998L261.941 67.2488C260.206 71.4855 257.182 75.0687 253.297 77.4904C249.439 79.9185 244.964 81.1874 240.406 81.1461V81.1461ZM223.618 58.4469V50.2356H257.149V58.4469H223.618Z" fill="#2678FD"/>
<path d="M272.582 79.7963V31.0515H282.199V42.9241L281.024 41.3887C281.607 39.7964 282.42 38.2977 283.436 36.94C284.43 35.617 285.662 34.4916 287.07 33.6217C288.305 32.7957 289.651 32.15 291.068 31.7039C293.961 30.7893 297.028 30.5658 300.022 31.0515V41.2087C298.4 40.7719 296.711 40.6328 295.039 40.7982C293.252 40.925 291.519 41.466 289.977 42.3786C288.533 43.1334 287.274 44.1973 286.288 45.4944C285.325 46.7863 284.613 48.2477 284.19 49.8025C283.724 51.5008 283.495 53.2552 283.509 55.0161V79.7963H272.582Z" fill="#2678FD"/>
<path d="M329.223 81.1461C324.349 81.1461 320.091 80.0493 316.45 77.8559C312.84 75.6771 309.916 72.5253 308.014 68.7616C305.949 64.6229 304.919 60.0453 305.011 55.421C305.011 50.3068 306.034 45.8243 308.082 41.9736C310.025 38.2272 312.978 35.1001 316.608 32.9468C320.445 30.7297 324.815 29.6055 329.245 29.696C334.15 29.696 338.422 30.7946 342.063 32.9918C345.687 35.1691 348.628 38.32 350.55 42.0861C352.627 46.2192 353.665 50.7962 353.576 55.421C353.67 60.0651 352.623 64.6614 350.527 68.8066C348.596 72.5673 345.648 75.7104 342.018 77.8784C338.366 80.0606 334.101 81.1498 329.223 81.1461ZM329.223 70.9494C333.557 70.9494 336.778 69.5059 338.885 66.6188C340.992 63.7317 342.044 59.9991 342.04 55.421C342.04 50.7042 340.974 46.936 338.84 44.1164C336.707 41.2968 333.501 39.8908 329.223 39.8983C326.302 39.8983 323.902 40.5525 322.024 41.8611C320.11 43.2171 318.654 45.124 317.851 47.3278C316.904 49.921 316.445 52.6666 316.495 55.4266C316.495 60.151 317.571 63.921 319.724 66.7369C321.876 69.5527 325.042 70.9569 329.223 70.9494Z" fill="#2678FD"/>
<path d="M363.39 79.7961L363.48 14.803H374.492V54.521L392.321 31.0513H405.903L386.995 55.4209L407.529 79.7961H393.147L374.492 56.3264V79.7961H363.39Z" fill="#2678FD"/>
<path d="M430.323 81.197C426.713 81.197 423.734 80.5952 421.386 79.3916C419.179 78.3148 417.253 76.7376 415.762 74.7854C414.413 72.9855 413.375 70.9723 412.691 68.8294C412.063 66.8828 411.632 64.8781 411.404 62.8453C411.212 60.9668 411.111 59.4708 411.111 58.2672V31.0518H422.123V54.5215C422.136 56.2132 422.242 57.903 422.438 59.5833C422.649 61.4527 423.144 63.2791 423.906 64.9994C424.653 66.6986 425.837 68.1696 427.337 69.2625C428.837 70.3873 430.899 70.9497 433.523 70.9497C434.919 70.9478 436.306 70.7199 437.629 70.2748C439.021 69.7977 440.281 69.0001 441.307 67.9464C442.52 66.6561 443.423 65.1056 443.945 63.4133C444.672 61.0466 445.009 58.577 444.941 56.1019L451.391 58.8521C451.447 62.7465 450.622 66.6031 448.979 70.1342C447.425 73.4428 444.958 76.2389 441.87 78.1937C438.746 80.1959 434.898 81.197 430.323 81.197ZM446.251 79.7966V64.6731H444.946V31.0518H455.868V79.7966H446.251Z" fill="#2678FD"/>
<defs>
<clipPath id="clip0_1_15">
<rect width="96" height="96" fill="white" transform="translate(0.0658264)"/>
</clipPath>
</defs>
</svg>
